# xmcd
#
# Track frame offsets:
#	150
#	20809
#	44449
#	65972
#	87467
#	106677
#	125107
#	147466
#	171079
#	189231
#
# Disc length: 2851 seconds
#
# Revision: 9
# Processed by: cddbd v1.5.2PL0 Copyright (c) Steve Scherf et al.
# Submitted via: EasyCDDAExtractor 12.0.1.1
#
DISCID=950b210a
DTITLE=齐秦 - 柔情主义
DYEAR=1999
DGENRE=Pop
TTITLE0=柔情主义
TTITLE1=残酷的温柔
TTITLE2=一面湖水
TTITLE3=九个太阳
TTITLE4=飞扬的梦
TTITLE5=终于放手
TTITLE6=大约在冬季
TTITLE7=玻璃心
TTITLE8=牵着
TTITLE9=外面的世界
EXTD=YEAR: 1999
EXTT0=
EXTT1=
EXTT2=
EXTT3=
EXTT4=
EXTT5=
EXTT6=
EXTT7=
EXTT8=
EXTT9=
PLAYORDER=
